2.2Hzlow3min_grf.mot
version=1
nRows=20
nColumns 19
inDegrees=yes
endheader
time	1_ground_force_vx	1_ground_force_vy	1_ground_force_vz	1_ground_force_px	1_ground_force_py	1_ground_force_pz	1_ground_torque_x	1_ground_torque_y	1_ground_torque_z	2_ground_force_vx	2_ground_force_vy	2_ground_force_vz	2_ground_force_px	2_ground_force_py	2_ground_force_pz	2_ground_torque_x	2_ground_torque_y	2_ground_torque_z
            0.005000	            4.978721	          417.092953	          -30.278167	           -0.232359	            0.006190	           -0.397677	           -0.001588	           -0.133051	            0.009659	           -1.411798	          434.637785	           39.938445	           -0.234554	            0.005849	           -0.757146	           -0.001738	            0.535021	            0.049163
            0.005500	            4.562903	          422.324479	          -31.171846	           -0.232400	            0.006191	           -0.397824	           -0.000564	           -0.052160	            0.003850	           -2.962188	          435.918738	           40.647624	           -0.234460	            0.005850	           -0.757291	           -0.003553	            0.522850	            0.048754
            0.006000	            4.192794	          429.538574	          -31.965424	           -0.232704	            0.006189	           -0.397386	            0.000047	            0.004773	           -0.000355	           -4.422764	          438.304098	           41.595345	           -0.234451	            0.005850	           -0.757283	           -0.005329	            0.528110	            0.050118
            0.006500	            3.410232	          434.770091	          -32.858192	           -0.232905	            0.006189	           -0.397451	           -0.001217	           -0.155105	            0.011722	           -5.835928	          440.506262	           42.307749	           -0.234403	            0.005851	           -0.757500	           -0.007285	            0.549865	            0.052811
            0.007000	            3.269631	          441.623306	          -33.562172	           -0.232840	            0.006189	           -0.397311	           -0.001111	           -0.150105	            0.011408	           -7.578391	          443.075751	           42.974679	           -0.233976	            0.005854	           -0.757949	           -0.010117	            0.591501	            0.057371
            0.007500	            2.806766	          447.217321	          -34.912750	           -0.232936	            0.006189	           -0.397385	           -0.001043	           -0.166109	            0.012968	           -8.945287	          445.461617	           43.875432	           -0.233964	            0.005854	           -0.757938	           -0.011457	            0.570549	            0.056196
            0.008000	            2.437681	          454.429646	          -35.293621	           -0.233209	            0.006187	           -0.396857	           -0.000430	           -0.080222	            0.006231	          -10.308901	          446.927053	           44.679044	           -0.233962	            0.005854	           -0.757897	           -0.013332	            0.577994	            0.057782
            0.008500	            2.204390	          459.302311	          -36.556147	           -0.233064	            0.006189	           -0.397476	           -0.000207	           -0.043192	            0.003438	          -11.633682	          450.602741	           45.396665	           -0.233940	            0.005855	           -0.758226	           -0.013738	            0.532120	            0.053609
            0.009000	            2.110234	          465.974255	          -37.031739	           -0.233395	            0.006189	           -0.397295	           -0.000073	           -0.016169	            0.001285	          -13.049361	          453.540358	           46.440194	           -0.233780	            0.005856	           -0.758226	           -0.017427	            0.605702	            0.062021
            0.009500	            1.693976	          471.747199	          -38.060663	           -0.233390	            0.006190	           -0.397640	           -0.000002	           -0.000471	            0.000038	          -14.412454	          454.822824	           46.914652	           -0.233773	            0.005855	           -0.758113	           -0.018582	            0.586403	            0.060487
            0.010000	            1.644881	          478.961159	          -38.809185	           -0.233740	            0.006187	           -0.397051	            0.000117	            0.034007	           -0.002756	          -15.694044	          459.600910	           48.387045	           -0.233923	            0.005856	           -0.758494	           -0.019885	            0.582340	            0.061309
            0.010500	            1.091109	          485.274707	          -39.789596	           -0.233577	            0.006187	           -0.397036	           -0.000239	           -0.106153	            0.008704	          -17.022066	          464.196694	           49.295663	           -0.233701	            0.005858	           -0.758715	           -0.020674	            0.563786	            0.059872
            0.011000	            1.178860	          492.489874	          -40.813587	           -0.233936	            0.006186	           -0.396762	           -0.000098	           -0.040877	            0.003388	          -18.434421	          466.213606	           50.335907	           -0.233626	            0.005858	           -0.758644	           -0.023974	            0.606309	            0.065462
            0.011500	            0.992664	          497.360323	          -41.571816	           -0.233969	            0.006187	           -0.397027	            0.000092	            0.046264	           -0.003867	          -19.853423	          470.071926	           51.382721	           -0.233785	            0.005857	           -0.758748	           -0.027191	            0.643801	            0.070373
            0.012000	            0.943929	          503.852828	          -42.231711	           -0.234004	            0.006187	           -0.396933	            0.000078	            0.041577	           -0.003485	          -20.620513	          475.037580	           52.433199	           -0.233576	            0.005859	           -0.758824	           -0.028662	            0.660299	            0.072882
            0.012500	            1.077834	          509.986213	          -43.214601	           -0.234222	            0.006187	           -0.397078	            0.000347	            0.164257	           -0.013919	          -21.899529	          479.079711	           53.715251	           -0.233751	            0.005858	           -0.758984	           -0.027393	            0.599266	            0.067191
            0.013000	            1.074064	          516.300003	          -44.242238	           -0.234469	            0.006187	           -0.396956	            0.000309	            0.148721	           -0.012744	          -23.133145	          483.491358	           54.717028	           -0.233710	            0.005860	           -0.759401	           -0.030821	            0.644179	            0.072902
            0.013500	            1.254103	          523.334030	          -45.037953	           -0.234524	            0.006187	           -0.396910	            0.000183	            0.076451	           -0.006579	          -24.179238	          487.902678	           56.000295	           -0.233438	            0.005861	           -0.759426	           -0.033987	            0.685805	            0.078715
            0.014000	            1.388677	          528.925604	          -45.793880	           -0.234787	            0.006186	           -0.396858	            0.000166	            0.063203	           -0.005472	          -25.086918	          492.868159	           56.956976	           -0.233720	            0.005861	           -0.759561	           -0.031971	            0.628123	            0.072587
            0.014500	            1.430636	          535.239599	          -46.867482	           -0.234943	            0.006186	           -0.396852	            0.000161	            0.060404	           -0.005289	          -26.089507	          498.200518	           58.196580	           -0.233711	            0.005862	           -0.759831	           -0.033828	            0.645983	            0.075460
